<svg width="267" height="222" viewBox="0 0 267 222" fill="none" xmlns="http://www.w3.org/2000/svg">
<g clip-path="url(#clip0_2_108)">
<path d="M175.649 0H98.0627C85.9958 0 76.2136 9.78851 76.2136 21.8632V199.27C76.2136 211.344 85.9958 221.133 98.0627 221.133H175.649C187.716 221.133 197.498 211.344 197.498 199.27V21.8632C197.498 9.78851 187.716 0 175.649 0Z" fill="#3F3D56"/>
<path d="M195.452 21.8647V199.27C195.446 204.524 193.357 209.56 189.645 213.275C185.932 216.99 180.899 219.08 175.648 219.086H98.0635C92.8132 219.08 87.7796 216.99 84.067 213.275C80.3544 209.56 78.2661 204.524 78.26 199.27V21.8647C78.2661 16.611 80.3544 11.5742 84.067 7.85919C87.7796 4.14422 92.8132 2.05448 98.0635 2.04839H108.209V5.55525C108.209 7.14287 108.839 8.66543 109.961 9.78805C111.083 10.9107 112.605 11.5414 114.191 11.5415H159.52C161.107 11.5414 162.629 10.9107 163.75 9.78805C164.872 8.66543 165.503 7.14287 165.503 5.55525V2.04839H175.648C180.899 2.05448 185.932 4.14422 189.645 7.85919C193.357 11.5742 195.446 16.611 195.452 21.8647V21.8647Z" fill="white"/>
<path d="M75.6556 44.8595C75.261 44.859 74.8828 44.702 74.6038 44.4228C74.3248 44.1436 74.1679 43.7651 74.1674 43.3703V40.3921C74.1674 39.9972 74.3242 39.6184 74.6033 39.3392C74.8824 39.0599 75.2609 38.903 75.6556 38.903C76.0502 38.903 76.4288 39.0599 76.7078 39.3392C76.9869 39.6184 77.1437 39.9972 77.1437 40.3921V43.3703C77.1433 43.7651 76.9863 44.1436 76.7073 44.4228C76.4284 44.702 76.0501 44.859 75.6556 44.8595V44.8595Z" fill="#3F3D56"/>
<path d="M75.6556 60.1308C75.261 60.1304 74.8828 59.9734 74.6038 59.6942C74.3248 59.415 74.1679 59.0365 74.1674 58.6417V50.4436C74.1674 50.0487 74.3242 49.6699 74.6033 49.3907C74.8824 49.1114 75.2609 48.9545 75.6556 48.9545C76.0502 48.9545 76.4288 49.1114 76.7078 49.3907C76.9869 49.6699 77.1437 50.0487 77.1437 50.4436V58.6417C77.1433 59.0365 76.9863 59.415 76.7073 59.6942C76.4284 59.9734 76.0501 60.1304 75.6556 60.1308V60.1308Z" fill="#3F3D56"/>
<path d="M75.6556 72.408C75.261 72.4075 74.8828 72.2505 74.6038 71.9713C74.3248 71.6922 74.1679 71.3137 74.1674 70.9189V62.7208C74.1674 62.3258 74.3242 61.9471 74.6033 61.6678C74.8824 61.3886 75.2609 61.2317 75.6556 61.2317C76.0502 61.2317 76.4288 61.3886 76.7078 61.6678C76.9869 61.9471 77.1437 62.3258 77.1437 62.7208V70.9189C77.1433 71.3137 76.9863 71.6922 76.7073 71.9713C76.4284 72.2505 76.0501 72.4075 75.6556 72.408V72.408Z" fill="#3F3D56"/>
<path d="M197.684 65.707C197.289 65.7065 196.911 65.5495 196.632 65.2703C196.353 64.9912 196.196 64.6127 196.196 64.2179V44.2141C196.196 43.8192 196.352 43.4404 196.631 43.1612C196.911 42.8819 197.289 42.725 197.684 42.725C198.078 42.725 198.457 42.8819 198.736 43.1612C199.015 43.4404 199.172 43.8192 199.172 44.2141V64.2179C199.171 64.6127 199.015 64.9912 198.736 65.2703C198.457 65.5495 198.078 65.7065 197.684 65.707V65.707Z" fill="#3F3D56"/>
<path d="M140.052 6.82973H128.519C128.273 6.82973 128.036 6.73167 127.862 6.55713C127.687 6.38259 127.589 6.14587 127.589 5.89903C127.589 5.6522 127.687 5.41547 127.862 5.24093C128.036 5.0664 128.273 4.96834 128.519 4.96834H140.052C140.299 4.96834 140.536 5.0664 140.71 5.24093C140.885 5.41547 140.983 5.6522 140.983 5.89903C140.983 6.14587 140.885 6.38259 140.71 6.55713C140.536 6.73167 140.299 6.82973 140.052 6.82973Z" fill="white"/>
<path d="M146.005 6.64359C146.416 6.64359 146.749 6.31024 146.749 5.89904C146.749 5.48783 146.416 5.15448 146.005 5.15448C145.594 5.15448 145.261 5.48783 145.261 5.89904C145.261 6.31024 145.594 6.64359 146.005 6.64359Z" fill="white"/>
<path d="M235.407 211.832C235.679 211.842 235.947 211.768 236.175 211.621C236.404 211.473 236.581 211.259 236.684 211.007C236.786 210.755 236.809 210.477 236.748 210.212C236.688 209.947 236.548 209.706 236.346 209.524C236.312 209.391 236.287 209.296 236.252 209.163C236.506 208.5 236.951 207.928 237.532 207.52C238.113 207.112 238.802 206.887 239.511 206.873C240.221 206.86 240.918 207.059 241.514 207.444C242.11 207.83 242.577 208.385 242.855 209.038C244.462 212.703 246.531 216.494 245.559 220.557C252.104 206.326 249.665 188.725 239.677 176.703C236.933 175.225 234.696 172.573 234.091 169.475C235.446 169.92 237.119 168.805 236.09 167.391C235.645 166.851 235.195 166.316 234.75 165.776C239.828 160.26 246.023 168.794 240.446 176.227C242.315 178.527 243.939 181.016 245.291 183.654C244.958 180.843 245.297 177.992 246.279 175.337C247.277 172.862 249.172 170.767 250.837 168.62C252.862 166.003 257.092 167.161 257.4 170.454C255.514 171.094 255.294 173.831 257.462 174.184C256.953 180.321 253.004 185.993 247.516 188.735C249.607 194.432 250.46 200.509 250.018 206.561C250.924 199.484 258.49 197.697 263.763 194.837C264.098 194.617 264.49 194.5 264.891 194.499C265.291 194.499 265.684 194.615 266.02 194.833C266.356 195.052 266.621 195.364 266.782 195.731C266.944 196.097 266.996 196.503 266.931 196.899C266.203 197.204 265.506 197.58 264.852 198.022C264.545 198.233 264.311 198.533 264.182 198.882C264.052 199.231 264.034 199.611 264.129 199.971C264.224 200.33 264.428 200.652 264.713 200.891C264.998 201.13 265.35 201.275 265.72 201.306C263.112 207.947 256.248 212.456 249.154 212.498C248.5 215.469 247.54 218.364 246.289 221.136L235.761 221.236C235.722 221.119 235.687 220.999 235.652 220.882C236.627 220.934 237.604 220.866 238.563 220.68C235.956 217.651 233.947 216.111 235.407 211.833L235.407 211.832Z" fill="#F2F2F2"/>
<path d="M31.622 211.832C31.3503 211.842 31.0821 211.768 30.8538 211.621C30.6255 211.473 30.4481 211.259 30.3456 211.007C30.2432 210.755 30.2206 210.477 30.2809 210.212C30.3412 209.947 30.4816 209.706 30.683 209.524C30.7177 209.391 30.7426 209.296 30.7773 209.163C30.5237 208.5 30.078 207.928 29.4972 207.52C28.9165 207.112 28.2273 206.887 27.5179 206.873C26.8085 206.86 26.1112 207.059 25.5155 207.444C24.9197 207.83 24.4527 208.385 24.1741 209.038C22.5678 212.703 20.4979 216.494 21.4707 220.557C14.9251 206.326 17.3646 188.725 27.3527 176.703C30.096 175.225 32.3333 172.573 32.9386 169.475C31.5837 169.92 29.9103 168.805 30.9393 167.391C31.3846 166.851 31.8342 166.316 32.2795 165.776C27.2011 160.26 21.0066 168.794 26.5834 176.227C24.7141 178.527 23.0901 181.016 21.738 183.654C22.0712 180.843 21.7326 177.992 20.75 175.337C19.7521 172.862 17.8575 170.767 16.192 168.62C14.167 166.003 9.93689 167.161 9.62972 170.454C11.5155 171.094 11.7352 173.831 9.56779 174.184C10.0762 180.321 14.0254 185.993 19.513 188.735C17.4227 194.432 16.5698 200.509 17.0111 206.561C16.1052 199.484 8.53935 197.697 3.26644 194.837C2.9312 194.617 2.53932 194.5 2.1386 194.499C1.73788 194.499 1.34564 194.615 1.00974 194.833C0.673832 195.052 0.408781 195.364 0.246916 195.731C0.0850508 196.097 0.0333671 196.503 0.0981715 196.899C0.826794 197.204 1.52338 197.58 2.17767 198.022C2.48422 198.233 2.7182 198.533 2.84754 198.882C2.97689 199.231 2.99526 199.611 2.90013 199.971C2.80501 200.33 2.60105 200.652 2.31622 200.891C2.03139 201.13 1.67962 201.275 1.30913 201.306C3.91753 207.947 10.7818 212.456 17.8754 212.498C18.5289 215.469 19.4891 218.364 20.7406 221.136L31.2687 221.236C31.3075 221.119 31.3426 220.999 31.3777 220.882C30.4026 220.934 29.4249 220.866 28.4662 220.68C31.0735 217.651 33.0823 216.111 31.6223 211.833L31.622 211.832Z" fill="#F2F2F2"/>
<path d="M103.776 10.8232H93.7313C93.238 10.8232 92.7648 10.6271 92.416 10.2781C92.0671 9.92898 91.8711 9.45553 91.8711 8.96186C91.8711 8.46819 92.0671 7.99474 92.416 7.64566C92.7648 7.29658 93.238 7.10047 93.7313 7.10047H103.776C104.27 7.10047 104.743 7.29658 105.092 7.64566C105.441 7.99474 105.637 8.46819 105.637 8.96186C105.637 9.45553 105.441 9.92898 105.092 10.2781C104.743 10.6271 104.27 10.8232 103.776 10.8232Z" fill="#E6E6E6"/>
<path d="M169.627 10.6371C170.552 10.6371 171.301 9.88707 171.301 8.96185C171.301 8.03664 170.552 7.28661 169.627 7.28661C168.702 7.28661 167.953 8.03664 167.953 8.96185C167.953 9.88707 168.702 10.6371 169.627 10.6371Z" fill="#E6E6E6"/>
<path d="M174.835 10.6371C175.76 10.6371 176.51 9.88707 176.51 8.96185C176.51 8.03664 175.76 7.28661 174.835 7.28661C173.911 7.28661 173.161 8.03664 173.161 8.96185C173.161 9.88707 173.911 10.6371 174.835 10.6371Z" fill="#E6E6E6"/>
<path d="M180.044 10.6371C180.969 10.6371 181.718 9.88707 181.718 8.96185C181.718 8.03664 180.969 7.28661 180.044 7.28661C179.119 7.28661 178.37 8.03664 178.37 8.96185C178.37 9.88707 179.119 10.6371 180.044 10.6371Z" fill="#E6E6E6"/>
<path d="M168.456 36.8395H105.322C104.099 36.8412 102.926 37.3281 102.061 38.1934C101.197 39.0588 100.71 40.232 100.708 41.4558V82.5217C100.71 83.7455 101.197 84.9187 102.061 85.784C102.926 86.6494 104.099 87.1363 105.322 87.1379H168.456C169.68 87.1369 170.852 86.6502 171.717 85.7847C172.582 84.9192 173.069 83.7457 173.07 82.5217V41.4558C173.069 40.2318 172.582 39.0582 171.717 38.1927C170.852 37.3273 169.68 36.8406 168.456 36.8395V36.8395Z" fill="#F2F2F2"/>
<path d="M148.691 54.3707C142.986 64.4649 136.689 74.2131 129.836 83.5646H119.935C126.42 75.6592 132.91 67.7537 139.404 59.8482C141.267 57.5719 143.289 55.1873 146.084 54.2624L148.691 54.3707Z" fill="#3F3D56"/>
<path d="M135.533 52.7521C134.501 53.8288 133.511 54.9488 132.58 56.1123C130.529 58.5836 128.507 61.0767 126.478 63.5625C125.214 65.1089 123.95 66.6553 122.701 68.2017C122.304 67.9467 121.927 67.6617 121.574 67.349C119.579 65.616 118.341 63.1697 118.126 60.5345C117.912 57.8993 118.737 55.2848 120.426 53.2511C122.114 51.2175 124.531 49.9266 127.16 49.655C129.788 49.3834 132.418 50.1528 134.486 51.7982C134.859 52.0891 135.209 52.408 135.533 52.7521V52.7521Z" fill="#D04729"/>
<path d="M173.07 51.578V53.0783L172.4 52.8326L162.976 49.3853C159.907 48.2647 156.845 46.9841 153.675 46.1762C150.918 45.3868 147.989 45.4244 145.252 46.2842C142.813 47.1873 140.581 48.5738 138.69 50.3606C137.853 51.135 137.042 51.9279 136.257 52.7507C136 53.0224 135.743 53.2942 135.49 53.5659C134.731 54.3924 133.998 55.2375 133.303 56.1123C131.253 58.5842 129.229 61.0785 127.201 63.5616C125.936 65.1103 124.671 66.6552 123.421 68.2002C119.247 73.3115 115.098 78.4328 110.973 83.5641C110.417 83.5578 109.864 83.4879 109.325 83.3556C113.533 78.1251 117.76 72.9082 122.008 67.705C122.104 67.5859 122.201 67.4668 122.298 67.3477C122.796 66.7259 123.306 66.1005 123.812 65.4788C125.929 62.884 128.047 60.2918 130.166 57.7019C131.707 55.8182 133.236 53.927 134.895 52.1401C134.995 52.0247 135.1 51.913 135.207 51.7976C135.367 51.6264 135.527 51.4588 135.691 51.2839C139.296 47.5574 143.794 44.2627 149.181 44.1734C152.351 44.125 155.413 45.1301 158.359 46.1911C161.533 47.3415 164.695 48.5104 167.865 49.6719L173.07 51.578Z" fill="#3F3D56"/>
<path d="M174.554 177.807H99.1576C97.9346 177.805 96.7621 177.318 95.8973 176.453C95.0325 175.588 94.546 174.414 94.5446 173.191V163.023C94.546 161.799 95.0325 160.626 95.8973 159.76C96.7621 158.895 97.9346 158.408 99.1576 158.407H174.554C175.777 158.408 176.95 158.895 177.814 159.76C178.679 160.626 179.166 161.799 179.167 163.023V173.191C179.166 174.414 178.679 175.588 177.814 176.453C176.95 177.318 175.777 177.805 174.554 177.807Z" fill="#F2F2F2"/>
<path d="M174.554 125.688H99.1576C97.9346 125.686 96.7621 125.2 95.8973 124.334C95.0325 123.469 94.546 122.296 94.5446 121.072V110.904C94.546 109.68 95.0325 108.507 95.8973 107.641C96.7621 106.776 97.9346 106.289 99.1576 106.288H174.554C175.777 106.289 176.95 106.776 177.814 107.641C178.679 108.507 179.166 109.68 179.167 110.904V121.072C179.166 122.296 178.679 123.469 177.814 124.334C176.95 125.2 175.777 125.686 174.554 125.688V125.688Z" fill="#F2F2F2"/>
<path d="M174.554 151.747H99.1576C97.9346 151.746 96.7621 151.259 95.8973 150.394C95.0325 149.528 94.546 148.355 94.5446 147.131V136.963C94.546 135.739 95.0325 134.566 95.8973 133.701C96.7621 132.836 97.9346 132.349 99.1576 132.347H174.554C175.777 132.349 176.95 132.836 177.814 133.701C178.679 134.566 179.166 135.739 179.167 136.963V147.131C179.166 148.355 178.679 149.528 177.814 150.394C176.95 151.259 175.777 151.746 174.554 151.747V151.747Z" fill="#F2F2F2"/>
<path d="M146.016 166.366H123.801C123.537 166.366 123.285 166.262 123.098 166.075C122.912 165.889 122.807 165.636 122.807 165.372C122.807 165.108 122.912 164.855 123.098 164.669C123.285 164.482 123.537 164.378 123.801 164.378H146.016C146.279 164.378 146.532 164.482 146.719 164.669C146.905 164.855 147.01 165.108 147.01 165.372C147.01 165.636 146.905 165.889 146.719 166.075C146.532 166.262 146.279 166.366 146.016 166.366V166.366Z" fill="white"/>
<path d="M167.382 171.836H123.552C123.289 171.836 123.036 171.731 122.85 171.544C122.663 171.358 122.559 171.105 122.559 170.841C122.559 170.578 122.663 170.325 122.85 170.138C123.036 169.952 123.289 169.847 123.552 169.847H167.382C167.646 169.847 167.898 169.952 168.085 170.138C168.271 170.325 168.376 170.578 168.376 170.841C168.376 171.105 168.271 171.358 168.085 171.544C167.898 171.731 167.646 171.836 167.382 171.836V171.836Z" fill="white"/>
<path d="M111.999 174.774C115.679 174.774 118.662 171.789 118.662 168.107C118.662 164.424 115.679 161.439 111.999 161.439C108.319 161.439 105.336 164.424 105.336 168.107C105.336 171.789 108.319 174.774 111.999 174.774Z" fill="white"/>
<path d="M110.514 177.113C109.834 176.795 109.057 176.755 108.348 177.001C107.639 177.248 107.055 177.762 106.718 178.433C106.652 178.571 106.598 178.713 106.555 178.86L96.5214 179.46L95.0344 184.662L108.69 182.353C109.311 182.483 109.958 182.403 110.529 182.127C111.1 181.85 111.564 181.392 111.848 180.824C112.006 180.499 112.099 180.147 112.121 179.786C112.143 179.425 112.094 179.064 111.977 178.722C111.859 178.381 111.676 178.065 111.436 177.795C111.197 177.524 110.907 177.303 110.583 177.145C110.56 177.134 110.537 177.123 110.514 177.113Z" fill="#FFB6B6"/>
<path d="M88.3672 151.455C87.706 151.185 86.9943 151.059 86.2805 151.089C85.5668 151.118 84.8676 151.3 84.2307 151.624C83.5937 151.948 83.0338 152.405 82.5892 152.964C82.1445 153.524 81.8255 154.172 81.6538 154.866L78.8953 166.013L79.4142 185.515C79.4142 185.515 93.8128 188.279 96.2299 186.502C98.6471 184.725 98.4201 183.402 98.6471 184.725C98.8741 186.048 99.9115 186.603 99.9259 186.077C99.9404 185.551 100.058 185.64 100.66 185.482C101.262 185.323 103.921 184.343 103.921 184.343L104.04 178.783C104.04 178.783 99.6449 177.116 98.5786 177.613C97.5123 178.11 98.8056 178.936 97.5123 178.11C96.2191 177.285 96.0778 174.68 95.8566 177.028C95.6355 179.376 94.9882 179.813 94.0186 178.769C93.049 177.725 88.5569 178.392 88.5569 178.392L91.4154 156.714C91.5592 155.624 91.3381 154.516 90.7866 153.565C90.2352 152.614 89.3844 151.872 88.3672 151.455V151.455Z" fill="#D04729"/>
<path d="M185.333 209.286L185.484 205.18L169.728 202.641L169.505 208.702L185.333 209.286Z" fill="#FFB6B6"/>
<path d="M182.473 210.522L182.323 203.948L185.132 204.052L189.667 197.973C189.891 197.673 190.205 197.452 190.563 197.343C190.921 197.234 191.305 197.243 191.658 197.367C192.011 197.492 192.315 197.726 192.526 198.036C192.736 198.346 192.842 198.715 192.829 199.089L192.541 206.899L189.712 208.143L192.472 208.771L192.363 211.716L182.473 210.522Z" fill="#2F2E41"/>
<path d="M96.6544 218.703L146.561 212.896C146.561 212.896 168.112 214.141 173.168 210.85L178.5 210.176L178.789 202.339C178.789 202.339 175.529 202.363 173.654 201.489C171.779 200.615 173.082 199.545 171.295 200.597C169.508 201.649 169.696 201.775 168.314 201.292C166.933 200.808 103.561 198.216 103.561 198.216L96.6544 218.703Z" fill="#2F2E41"/>
<path d="M162.418 215.302L165.32 212.394L155.494 199.81L151.211 204.101L162.418 215.302Z" fill="#FFB6B6"/>
<path d="M159.481 214.262L163.84 209.34L165.828 211.328L173.284 209.958C173.652 209.89 174.032 209.942 174.369 210.106C174.706 210.27 174.981 210.537 175.156 210.869C175.33 211.2 175.393 211.579 175.337 211.95C175.281 212.32 175.108 212.663 174.843 212.928L169.324 218.457L166.405 217.444L168.001 219.783L165.92 221.868L159.481 214.262Z" fill="#2F2E41"/>
<path d="M76.965 191.353L77.4611 202.894C78.0452 216.479 92.9972 224.702 104.591 217.609C104.805 217.478 105.019 217.343 105.234 217.202C105.234 217.202 109.63 216.021 109.496 214.151C109.363 212.28 110.437 211.37 111.387 211.88C112.337 212.39 124.779 194.722 124.779 194.722C124.779 194.722 150.629 207.624 156.331 210.662L162.348 209.021C162.348 209.021 164.613 210.091 163.797 208.543C162.982 206.996 162.835 207.737 162.585 206.05C162.334 204.364 161.693 202.273 161.304 202.361C160.915 202.449 129.325 180.324 129.325 180.324C129.325 180.324 124.178 175.112 117.794 178.553C117.661 179.059 117.775 179.076 117.775 179.076L96.6865 196.271L93.7067 190.609L76.965 191.353Z" fill="#2F2E41"/>
<path d="M91.1391 148.95L82.0972 144.709L79.3902 149.423C79.3902 149.423 72.12 159.804 72.0145 167.294C71.909 174.783 73.1993 177.011 73.1993 177.011C73.1993 177.011 70.0646 179.356 71.632 180.789C73.1993 182.222 76.6692 182.841 74.0041 183.462C71.3391 184.084 72.0145 190.375 74.9908 191.492C77.9671 192.609 93.9514 192.599 93.9514 192.599C93.8077 192.111 93.7971 191.594 93.9207 191.101C94.0444 190.607 94.2977 190.156 94.6544 189.794C95.8936 188.551 97.0097 189.443 95.8936 187.508C94.7775 185.573 92.9173 186.69 94.4054 184.084C95.8936 181.478 95.893 180.699 95.893 180.699C95.893 180.699 98.9268 174.922 94.3572 168.654C94.0787 168.272 94.3129 168.257 94.3129 168.257L90.623 155.884L91.1391 148.95Z" fill="#D04729"/>
<path d="M76.5676 131.12C76.6441 133.031 75.4405 135.739 74.8478 137.372C74.2141 139.117 76.9607 141.434 78.7187 141.942C78.8102 141.337 79.1116 140.784 79.5701 140.38C79.4434 140.956 79.4324 141.552 79.5377 142.132L94.3997 145.518C97.0734 142.42 99.7618 137.966 99.1754 132.594C99.3158 131.574 99.152 130.535 98.7045 129.607C98.257 128.68 97.5458 127.906 96.6601 127.382L89.1466 122.94C85.9507 122.212 81.9261 121.773 79.6177 123.751C78.5864 124.67 77.7762 125.81 77.248 127.086C76.7197 128.362 76.4871 129.741 76.5676 131.12V131.12Z" fill="#2F2E41"/>
<path d="M89.8522 143.881C94.578 143.881 98.409 140.048 98.409 135.319C98.409 130.59 94.578 126.756 89.8522 126.756C85.1264 126.756 81.2953 130.59 81.2953 135.319C81.2953 140.048 85.1264 143.881 89.8522 143.881Z" fill="#FFB6B6"/>
<path d="M79.8278 130.744L79.4148 132.559L86.6337 134.204C86.6401 133.837 86.7223 133.475 86.875 133.141C87.0278 132.807 87.2479 132.509 87.5214 132.264C87.3657 132.976 87.3835 133.714 87.5732 134.418C91.4664 136.604 94.9754 137.378 98.1218 136.821C98.5481 136.918 98.9955 136.841 99.3656 136.609C99.7356 136.376 99.998 136.005 100.095 135.579V135.579C101.361 130.014 98.0444 124.327 92.5106 122.945C91.1656 122.609 89.7669 122.544 88.3966 122.756C87.0263 122.967 85.712 123.45 84.5307 124.177C83.3494 124.903 82.3249 125.858 81.5174 126.986C80.7098 128.114 80.1354 129.391 79.8278 130.744V130.744Z" fill="#2F2E41"/>
<path d="M84.0483 118.77C85.0002 118.563 86.0075 118.613 86.8682 117.968L86.3038 119.264C87.8686 118.835 89.5368 119.002 90.986 119.732C91.4169 119.926 91.7843 120.237 92.046 120.63C92.1866 120.868 92.2721 121.134 92.2962 121.409C92.3204 121.684 92.2825 121.961 92.1854 122.22C92.0929 122.441 91.9552 122.641 91.7811 122.807C91.6069 122.972 91.4003 123.099 91.1742 123.18C90.7735 123.301 90.3538 123.345 89.9369 123.31C88.1801 123.269 86.4233 123.228 84.6665 123.187C83.997 123.229 83.3279 123.099 82.7227 122.809C82.401 122.61 82.1442 122.322 81.984 121.979C81.8238 121.636 81.7672 121.254 81.8209 120.88C81.9885 119.701 83.0965 118.976 84.0483 118.77Z" fill="#2F2E41"/>
<path d="M130.466 185.877C130.445 185.852 130.422 185.831 130.396 185.812C130.332 185.738 130.254 185.677 130.166 185.633L129.54 185.297L125.383 180.679C125.143 180.554 124.863 180.527 124.603 180.605L124.592 180.608L122.811 181.159L121.28 181.634L119.14 182.298L104.569 186.813L94.9912 189.78C94.7322 189.862 94.5158 190.043 94.3885 190.283C94.2612 190.523 94.2332 190.803 94.3105 191.064C94.3555 191.207 94.43 191.34 94.5292 191.453L94.834 191.792L95.4733 192.505L96.9544 195.576L97.3654 196.035C97.4963 196.181 97.6661 196.287 97.855 196.34C98.0438 196.393 98.2438 196.391 98.4316 196.334L129.986 187.554C130.15 187.501 130.298 187.409 130.418 187.285C130.537 187.161 130.625 187.009 130.672 186.843C130.72 186.678 130.726 186.503 130.69 186.334C130.654 186.166 130.577 186.008 130.466 185.877V185.877Z" fill="#CCCCCC"/>
<path d="M128.592 140.196L127.981 140.295C127.814 140.323 127.664 140.416 127.565 140.554L127.295 140.931L124.867 147.007C124.768 147.146 124.728 147.318 124.757 147.486L125.041 149.218L123.966 180.119C123.993 180.279 124.079 180.423 124.206 180.522L128.921 186.833L129.031 186.921L129.269 187.107C129.39 187.201 129.542 187.249 129.695 187.243L130.096 187.223C130.187 187.219 130.276 187.195 130.357 187.154C130.438 187.113 130.51 187.054 130.567 186.983C130.624 186.913 130.666 186.831 130.689 186.743C130.712 186.655 130.716 186.563 130.7 186.473L129.333 140.725C129.305 140.557 129.212 140.407 129.074 140.307C128.935 140.208 128.763 140.168 128.595 140.196L128.592 140.196Z" fill="#CCCCCC"/>
<path d="M127.569 142.597L125.418 149.154L124.586 175.345L127.934 178.324L127.569 142.597Z" fill="#D04729"/>
<path d="M110.934 182.549C110.254 182.231 109.477 182.191 108.768 182.438C108.059 182.684 107.474 183.198 107.138 183.869C107.072 184.007 107.017 184.15 106.975 184.296L96.9412 184.896L95.4541 190.098L109.11 187.789C109.731 187.919 110.378 187.839 110.949 187.563C111.52 187.286 111.984 186.828 112.268 186.26C112.587 185.604 112.634 184.848 112.396 184.158C112.159 183.468 111.658 182.901 111.002 182.581C110.98 182.57 110.957 182.559 110.934 182.549Z" fill="#FFB6B6"/>
<path d="M88.787 156.891C88.1258 156.621 87.4141 156.496 86.7003 156.525C85.9866 156.554 85.2874 156.736 84.6504 157.06C84.0135 157.384 83.4536 157.841 83.009 158.4C82.5643 158.96 82.2453 159.608 82.0736 160.302L79.3151 171.45L79.834 190.951C79.834 190.951 94.2326 193.716 96.6497 191.938C99.0669 190.161 98.8399 188.838 99.0669 190.161C99.2939 191.484 100.331 192.039 100.346 191.513C100.36 190.987 100.477 191.077 101.08 190.918C101.682 190.76 104.341 189.779 104.341 189.779L104.46 184.219C104.46 184.219 100.065 182.552 98.9984 183.049C97.9321 183.547 99.2254 184.372 97.9321 183.547C96.6389 182.721 96.4975 180.116 96.2764 182.464C96.0553 184.812 95.408 185.249 94.4384 184.205C93.4688 183.161 88.9767 183.828 88.9767 183.828L91.8352 162.15C91.979 161.06 91.7579 159.953 91.2064 159.001C90.655 158.05 89.8042 157.308 88.787 156.891V156.891Z" fill="#D04729"/>
<path d="M5.77422e-06 221.557C-0.000167621 221.615 0.0111682 221.673 0.0333572 221.727C0.0555462 221.781 0.0881538 221.829 0.129301 221.871C0.170449 221.912 0.219324 221.944 0.273118 221.967C0.326913 221.989 0.384564 222 0.442754 222H266.557C266.675 222 266.787 221.953 266.87 221.87C266.953 221.787 267 221.674 267 221.557C267 221.44 266.953 221.327 266.87 221.244C266.787 221.161 266.675 221.114 266.557 221.114H0.442731C0.384544 221.114 0.326898 221.125 0.273107 221.147C0.219316 221.17 0.170441 221.202 0.129296 221.243C0.0881508 221.285 0.0555455 221.333 0.0333572 221.387C0.0111689 221.441 -0.000165632 221.499 5.77422e-06 221.557V221.557Z" fill="#CCCCCC"/>
<path d="M234.824 125.688H159.428C158.205 125.686 157.032 125.2 156.167 124.334C155.302 123.469 154.816 122.296 154.815 121.072V110.904C154.816 109.68 155.302 108.507 156.167 107.641C157.032 106.776 158.205 106.289 159.428 106.288H234.824C236.047 106.289 237.22 106.776 238.084 107.641C238.949 108.507 239.436 109.68 239.437 110.904V121.072C239.436 122.296 238.949 123.469 238.084 124.334C237.22 125.2 236.047 125.686 234.824 125.688V125.688Z" fill="#E6E6E6"/>
<path d="M206.286 114.248H184.071C183.807 114.248 183.555 114.143 183.368 113.956C183.182 113.77 183.077 113.517 183.077 113.253C183.077 112.989 183.182 112.736 183.368 112.55C183.555 112.364 183.807 112.259 184.071 112.259H206.286C206.549 112.259 206.802 112.364 206.989 112.55C207.175 112.736 207.28 112.989 207.28 113.253C207.28 113.517 207.175 113.77 206.989 113.956C206.802 114.143 206.549 114.248 206.286 114.248V114.248Z" fill="white"/>
<path d="M227.652 119.717H183.822C183.559 119.717 183.306 119.612 183.12 119.426C182.933 119.239 182.829 118.986 182.829 118.722C182.829 118.459 182.933 118.206 183.12 118.019C183.306 117.833 183.559 117.728 183.822 117.728H227.652C227.916 117.728 228.168 117.833 228.355 118.019C228.541 118.206 228.646 118.459 228.646 118.722C228.646 118.986 228.541 119.239 228.355 119.426C228.168 119.612 227.916 119.717 227.652 119.717V119.717Z" fill="white"/>
<path d="M172.269 122.655C175.949 122.655 178.932 119.67 178.932 115.988C178.932 112.306 175.949 109.321 172.269 109.321C168.589 109.321 165.606 112.306 165.606 115.988C165.606 119.67 168.589 122.655 172.269 122.655Z" fill="white"/>
<path d="M210.642 151.747H135.245C134.022 151.746 132.85 151.259 131.985 150.394C131.12 149.528 130.634 148.355 130.632 147.131V136.963C130.634 135.739 131.12 134.566 131.985 133.701C132.85 132.836 134.022 132.349 135.245 132.347H210.642C211.865 132.349 213.037 132.836 213.902 133.701C214.767 134.566 215.253 135.739 215.255 136.963V147.131C215.253 148.355 214.767 149.528 213.902 150.394C213.037 151.259 211.865 151.746 210.642 151.747V151.747Z" fill="#E6E6E6"/>
<path d="M182.104 140.307H159.889C159.625 140.307 159.372 140.202 159.186 140.016C158.999 139.829 158.895 139.576 158.895 139.313C158.895 139.049 158.999 138.796 159.186 138.609C159.372 138.423 159.625 138.318 159.889 138.318H182.104C182.367 138.318 182.62 138.423 182.806 138.609C182.993 138.796 183.097 139.049 183.097 139.313C183.097 139.576 182.993 139.829 182.806 140.016C182.62 140.202 182.367 140.307 182.104 140.307V140.307Z" fill="white"/>
<path d="M203.47 145.776H159.64C159.377 145.776 159.124 145.672 158.937 145.485C158.751 145.299 158.646 145.046 158.646 144.782C158.646 144.518 158.751 144.265 158.937 144.079C159.124 143.892 159.377 143.787 159.64 143.787H203.47C203.733 143.787 203.986 143.892 204.172 144.079C204.359 144.265 204.463 144.518 204.463 144.782C204.463 145.046 204.359 145.299 204.172 145.485C203.986 145.672 203.733 145.776 203.47 145.776V145.776Z" fill="white"/>
<path d="M148.086 148.715C151.766 148.715 154.749 145.729 154.749 142.047C154.749 138.365 151.766 135.38 148.086 135.38C144.407 135.38 141.424 138.365 141.424 142.047C141.424 145.729 144.407 148.715 148.086 148.715Z" fill="white"/>
</g>
<defs>
<clipPath id="clip0_2_108">
<rect width="267" height="222" fill="white"/>
</clipPath>
</defs>
</svg>
