<svg width="267" height="222" viewBox="0 0 267 222" fill="none" xmlns="http://www.w3.org/2000/svg">
<g clip-path="url(#clip0_2_7)">
<path d="M138.073 0H60.487C48.42 0 38.6378 9.78851 38.6378 21.8632V199.27C38.6378 211.344 48.42 221.133 60.487 221.133H138.073C150.14 221.133 159.922 211.344 159.922 199.27V21.8632C159.922 9.78851 150.14 0 138.073 0Z" fill="#3F3D56"/>
<path d="M157.876 21.8647V199.27C157.87 204.524 155.781 209.56 152.069 213.275C148.356 216.99 143.323 219.08 138.072 219.086H60.4878C55.2374 219.08 50.2038 216.99 46.4912 213.275C42.7787 209.56 40.6903 204.524 40.6842 199.27V21.8647C40.6903 16.611 42.7787 11.5742 46.4912 7.85919C50.2038 4.14422 55.2374 2.05448 60.4878 2.04839H70.6332V5.55525C70.6333 7.14287 71.2636 8.66543 72.3855 9.78805C73.5074 10.9107 75.029 11.5414 76.6156 11.5415H121.945C123.531 11.5414 125.053 10.9107 126.175 9.78805C127.297 8.66543 127.927 7.14287 127.927 5.55525V2.04839H138.072C143.323 2.05448 148.356 4.14422 152.069 7.85919C155.781 11.5742 157.87 16.611 157.876 21.8647Z" fill="white"/>
<path d="M124.683 97.5825C120.185 95.5535 115.172 100.146 118.508 104.444C107.236 114.717 90.4995 118.333 75.9285 114.035C75.569 114.902 75.1912 115.76 74.8041 116.617C69.0139 129.449 60.7196 140.994 50.4084 150.574C63.9841 139.276 80.7118 148.822 95.0985 152.538C96.0775 152.706 96.9866 153.155 97.7144 153.832C98.4423 154.508 98.9575 155.382 99.197 156.346C99.4366 157.311 99.3901 158.325 99.0632 159.263C98.7363 160.202 98.1433 161.025 97.3565 161.631C95.5239 160.952 93.6283 160.458 91.6976 160.156C90.7868 160.017 89.8554 160.165 89.0316 160.578C88.2079 160.991 87.5323 161.649 87.0978 162.462C86.6633 163.275 86.4912 164.203 86.6052 165.117C86.7193 166.032 87.1138 166.889 87.7346 167.57C72.6659 174.801 53.9199 172.136 40.9893 161.751V155.581C54.676 145.065 65.5933 131.368 72.7949 115.677C75.3265 110.166 77.3741 104.445 78.9146 98.5785C80.598 92.1627 81.6354 85.5944 82.0113 78.9719C79.5321 71.6586 79.9468 63.0726 84.0757 56.4326C85.7807 59.5313 90.693 60.3336 91.2091 56.036C91.3197 54.3022 91.4027 52.5684 91.5041 50.8439C110.02 49.4144 106.859 75.3568 84.2047 79.4145C83.763 86.0782 82.6828 92.684 80.979 99.141C80.8224 99.7866 80.6472 100.423 80.4629 101.059C84.603 95.3995 90.0264 90.8038 96.2874 87.6501C102.269 84.8465 109.236 84.247 115.881 83.168C123.964 81.8492 129.687 91.09 124.683 97.5825Z" fill="#F2F2F2"/>
<path d="M38.0798 44.8595C37.6852 44.859 37.307 44.702 37.028 44.4228C36.749 44.1436 36.5921 43.7651 36.5916 43.3703V40.3921C36.5916 39.9972 36.7484 39.6184 37.0275 39.3392C37.3066 39.0599 37.6851 38.903 38.0798 38.903C38.4744 38.903 38.853 39.0599 39.132 39.3392C39.4111 39.6184 39.5679 39.9972 39.5679 40.3921V43.3703C39.5675 43.7651 39.4105 44.1436 39.1315 44.4228C38.8526 44.702 38.4743 44.859 38.0798 44.8595Z" fill="#3F3D56"/>
<path d="M38.0798 60.1308C37.6852 60.1304 37.307 59.9734 37.028 59.6942C36.749 59.415 36.5921 59.0365 36.5916 58.6417V50.4436C36.5916 50.0487 36.7484 49.6699 37.0275 49.3907C37.3066 49.1114 37.6851 48.9545 38.0798 48.9545C38.4744 48.9545 38.853 49.1114 39.132 49.3907C39.4111 49.6699 39.5679 50.0487 39.5679 50.4436V58.6417C39.5675 59.0365 39.4105 59.415 39.1315 59.6942C38.8526 59.9734 38.4743 60.1304 38.0798 60.1308Z" fill="#3F3D56"/>
<path d="M38.0798 72.408C37.6852 72.4075 37.307 72.2505 37.028 71.9713C36.749 71.6922 36.5921 71.3137 36.5916 70.9189V62.7208C36.5916 62.3258 36.7484 61.9471 37.0275 61.6678C37.3066 61.3886 37.6851 61.2317 38.0798 61.2317C38.4744 61.2317 38.853 61.3886 39.132 61.6678C39.4111 61.9471 39.5679 62.3258 39.5679 62.7208V70.9189C39.5675 71.3137 39.4105 71.6922 39.1315 71.9713C38.8526 72.2505 38.4743 72.4075 38.0798 72.408Z" fill="#3F3D56"/>
<path d="M160.108 65.707C159.713 65.7065 159.335 65.5495 159.056 65.2703C158.777 64.9912 158.62 64.6127 158.62 64.2179V44.2141C158.62 43.8192 158.777 43.4404 159.056 43.1612C159.335 42.8819 159.713 42.725 160.108 42.725C160.503 42.725 160.881 42.8819 161.16 43.1612C161.439 43.4404 161.596 43.8192 161.596 44.2141V64.2179C161.596 64.6127 161.439 64.9912 161.16 65.2703C160.881 65.5495 160.503 65.7065 160.108 65.707Z" fill="#3F3D56"/>
<path d="M102.477 6.82973H90.9435C90.6968 6.82973 90.4603 6.73167 90.2858 6.55713C90.1114 6.38259 90.0134 6.14587 90.0134 5.89903C90.0134 5.6522 90.1114 5.41547 90.2858 5.24093C90.4603 5.0664 90.6968 4.96834 90.9435 4.96834H102.477C102.723 4.96834 102.96 5.0664 103.134 5.24093C103.309 5.41547 103.407 5.6522 103.407 5.89903C103.407 6.14587 103.309 6.38259 103.134 6.55713C102.96 6.73167 102.723 6.82973 102.477 6.82973Z" fill="white"/>
<path d="M108.429 6.64359C108.84 6.64359 109.173 6.31024 109.173 5.89904C109.173 5.48783 108.84 5.15448 108.429 5.15448C108.018 5.15448 107.685 5.48783 107.685 5.89904C107.685 6.31024 108.018 6.64359 108.429 6.64359Z" fill="white"/>
<path d="M73.9315 56.0389H61.0098C59.2211 56.0369 57.5063 55.325 56.2415 54.0594C54.9768 52.7938 54.2653 51.0779 54.2633 49.2881V36.358C54.2653 34.5682 54.9768 32.8523 56.2415 31.5867C57.5063 30.3211 59.2211 29.6092 61.0098 29.6072H73.9315C75.7202 29.6092 77.435 30.3211 78.6997 31.5867C79.9645 32.8523 80.6759 34.5682 80.678 36.358V49.2881C80.6759 51.0779 79.9645 52.7938 78.6997 54.0594C77.435 55.325 75.7202 56.0369 73.9315 56.0389ZM61.0098 30.3517C59.4184 30.3536 57.8927 30.9869 56.7675 32.1129C55.6422 33.2389 55.0092 34.7656 55.0074 36.358V49.2881C55.0092 50.8805 55.6422 52.4071 56.7675 53.5331C57.8927 54.6591 59.4184 55.2925 61.0098 55.2943H73.9315C75.5229 55.2925 77.0485 54.6591 78.1738 53.5331C79.2991 52.4071 79.9321 50.8805 79.9339 49.2881V36.358C79.9321 34.7656 79.2991 33.2389 78.1738 32.1129C77.0485 30.9869 75.5229 30.3536 73.9315 30.3517L61.0098 30.3517Z" fill="#E6E6E6"/>
<path d="M105.741 56.225H92.819C91.0303 56.223 89.3155 55.5111 88.0507 54.2455C86.786 52.9799 86.0745 51.264 86.0725 49.4742V36.5441C86.0745 34.7543 86.786 33.0384 88.0507 31.7728C89.3155 30.5072 91.0303 29.7953 92.819 29.7933H105.741C107.529 29.7953 109.244 30.5072 110.509 31.7728C111.774 33.0384 112.485 34.7543 112.487 36.5441V49.4742C112.485 51.264 111.774 52.9799 110.509 54.2455C109.244 55.5111 107.529 56.223 105.741 56.225ZM92.819 30.5379C91.2276 30.5397 89.7019 31.1731 88.5767 32.2991C87.4514 33.4251 86.8184 34.9517 86.8166 36.5441V49.4742C86.8184 51.0666 87.4514 52.5933 88.5767 53.7193C89.7019 54.8452 91.2276 55.4786 92.819 55.4805H105.741C107.332 55.4786 108.858 54.8452 109.983 53.7193C111.108 52.5933 111.741 51.0666 111.743 49.4742V36.5441C111.741 34.9517 111.108 33.4251 109.983 32.2991C108.858 31.1731 107.332 30.5397 105.741 30.5379L92.819 30.5379Z" fill="#E6E6E6"/>
<path d="M137.55 56.4112H124.628C122.84 56.4091 121.125 55.6972 119.86 54.4317C118.595 53.1661 117.884 51.4502 117.882 49.6604V36.7302C117.884 34.9404 118.595 33.2245 119.86 31.9589C121.125 30.6934 122.84 29.9815 124.628 29.9794H137.55C139.339 29.9815 141.053 30.6934 142.318 31.9589C143.583 33.2245 144.294 34.9404 144.296 36.7302V49.6603C144.294 51.4501 143.583 53.1661 142.318 54.4317C141.053 55.6972 139.339 56.4091 137.55 56.4112ZM124.628 30.724C123.037 30.7258 121.511 31.3592 120.386 32.4852C119.261 33.6112 118.628 35.1378 118.626 36.7302V49.6603C118.628 51.2527 119.261 52.7794 120.386 53.9054C121.511 55.0314 123.037 55.6648 124.628 55.6666H137.55C139.141 55.6648 140.667 55.0314 141.792 53.9054C142.918 52.7794 143.551 51.2527 143.552 49.6603V36.7302C143.551 35.1378 142.918 33.6112 141.792 32.4852C140.667 31.3592 139.141 30.7258 137.55 30.724L124.628 30.724Z" fill="#E6E6E6"/>
<path d="M73.9315 92.8943H61.0098C59.2211 92.8923 57.5063 92.1804 56.2415 90.9149C54.9768 89.6493 54.2653 87.9334 54.2633 86.1436V73.2135C54.2653 71.4236 54.9768 69.7077 56.2415 68.4421C57.5063 67.1766 59.2211 66.4647 61.0098 66.4627H73.9315C75.7202 66.4647 77.435 67.1766 78.6997 68.4421C79.9645 69.7077 80.6759 71.4236 80.678 73.2135V86.1435C80.6759 87.9333 79.9645 89.6493 78.6997 90.9149C77.435 92.1804 75.7202 92.8923 73.9315 92.8943ZM61.0098 67.2072C59.4184 67.209 57.8927 67.8424 56.7675 68.9684C55.6422 70.0944 55.0092 71.6211 55.0074 73.2135V86.1435C55.0092 87.7359 55.6422 89.2626 56.7675 90.3886C57.8927 91.5146 59.4184 92.148 61.0098 92.1498H73.9315C75.5229 92.148 77.0485 91.5146 78.1738 90.3886C79.2991 89.2626 79.9321 87.7359 79.9339 86.1435V73.2135C79.9321 71.6211 79.2991 70.0944 78.1738 68.9684C77.0485 67.8424 75.5229 67.209 73.9315 67.2072L61.0098 67.2072Z" fill="#E6E6E6"/>
<path d="M105.741 93.0805H92.819C91.0303 93.0785 89.3155 92.3666 88.0507 91.101C86.786 89.8354 86.0745 88.1195 86.0725 86.3297V73.3996C86.0745 71.6098 86.786 69.8939 88.0507 68.6283C89.3155 67.3627 91.0303 66.6508 92.819 66.6488H105.741C107.529 66.6508 109.244 67.3627 110.509 68.6283C111.774 69.8939 112.485 71.6098 112.487 73.3996V86.3297C112.485 88.1195 111.774 89.8354 110.509 91.101C109.244 92.3666 107.529 93.0785 105.741 93.0805ZM92.819 67.3933C91.2276 67.3952 89.7019 68.0286 88.5767 69.1546C87.4514 70.2805 86.8184 71.8072 86.8166 73.3996V86.3297C86.8184 87.9221 87.4514 89.4487 88.5767 90.5747C89.7019 91.7007 91.2276 92.3341 92.819 92.3359H105.741C107.332 92.3341 108.858 91.7007 109.983 90.5747C111.108 89.4487 111.741 87.9221 111.743 86.3297V73.3996C111.741 71.8072 111.108 70.2805 109.983 69.1545C108.858 68.0285 107.332 67.3952 105.741 67.3933L92.819 67.3933Z" fill="#E6E6E6"/>
<path d="M137.55 93.2666H124.628C122.84 93.2646 121.125 92.5527 119.86 91.2871C118.595 90.0216 117.884 88.3056 117.882 86.5158V73.5857C117.884 71.7959 118.595 70.08 119.86 68.8144C121.125 67.5488 122.84 66.8369 124.628 66.8349H137.55C139.339 66.8369 141.053 67.5488 142.318 68.8144C143.583 70.08 144.294 71.7959 144.296 73.5857V86.5158C144.294 88.3056 143.583 90.0216 142.318 91.2871C141.053 92.5527 139.339 93.2646 137.55 93.2666ZM124.628 67.5795C123.037 67.5813 121.511 68.2147 120.386 69.3407C119.261 70.4667 118.628 71.9933 118.626 73.5857V86.5158C118.628 88.1082 119.261 89.6349 120.386 90.7609C121.511 91.8869 123.037 92.5202 124.628 92.5221H137.55C139.141 92.5203 140.667 91.8869 141.792 90.7609C142.918 89.6349 143.551 88.1082 143.552 86.5158V73.5857C143.551 71.9933 142.918 70.4667 141.792 69.3407C140.667 68.2146 139.141 67.5813 137.55 67.5795L124.628 67.5795Z" fill="#E6E6E6"/>
<path d="M73.9316 204.578H61.0098C59.3198 204.576 57.6996 203.903 56.5045 202.707C55.3095 201.512 54.6373 199.89 54.6354 198.199V185.269C54.6373 183.578 55.3095 181.957 56.5045 180.761C57.6996 179.565 59.3198 178.892 61.0098 178.891H73.9316C75.6216 178.892 77.2419 179.565 78.4369 180.761C79.6319 181.957 80.3041 183.578 80.306 185.269V198.199C80.3041 199.89 79.6319 201.512 78.4369 202.707C77.2419 203.903 75.6216 204.576 73.9316 204.578Z" fill="#D04729"/>
<path d="M105.741 204.764H92.819C91.129 204.762 89.5088 204.089 88.3138 202.894C87.1187 201.698 86.4465 200.076 86.4446 198.385V185.455C86.4465 183.764 87.1187 182.143 88.3138 180.947C89.5088 179.751 91.129 179.079 92.819 179.077H105.741C107.431 179.079 109.051 179.751 110.246 180.947C111.441 182.143 112.113 183.764 112.115 185.455V198.385C112.113 200.076 111.441 201.698 110.246 202.894C109.051 204.089 107.431 204.762 105.741 204.764Z" fill="#E6E6E6"/>
<path d="M137.55 204.95H124.628C122.938 204.948 121.318 204.275 120.123 203.08C118.928 201.884 118.256 200.263 118.254 198.571V185.641C118.256 183.95 118.928 182.329 120.123 181.133C121.318 179.937 122.938 179.265 124.628 179.263H137.55C139.24 179.265 140.86 179.937 142.055 181.133C143.25 182.329 143.922 183.95 143.924 185.641V198.571C143.922 200.263 143.25 201.884 142.055 203.08C140.86 204.275 139.24 204.948 137.55 204.95Z" fill="#E6E6E6"/>
<path d="M92.5833 168.281C93.6106 168.281 94.4435 167.447 94.4435 166.419C94.4435 165.391 93.6106 164.558 92.5833 164.558C91.5559 164.558 90.7231 165.391 90.7231 166.419C90.7231 167.447 91.5559 168.281 92.5833 168.281Z" fill="#CCCCCC"/>
<path d="M99.2799 168.281C100.307 168.281 101.14 167.447 101.14 166.419C101.14 165.391 100.307 164.558 99.2799 164.558C98.2526 164.558 97.4197 165.391 97.4197 166.419C97.4197 167.447 98.2526 168.281 99.2799 168.281Z" fill="#E6E6E6"/>
<path d="M105.977 168.281C107.004 168.281 107.837 167.447 107.837 166.419C107.837 165.391 107.004 164.558 105.977 164.558C104.949 164.558 104.116 165.391 104.116 166.419C104.116 167.447 104.949 168.281 105.977 168.281Z" fill="#E6E6E6"/>
<path d="M143.771 208.859H54.8888C52.8621 208.857 50.9191 208.05 49.486 206.616C48.0529 205.182 47.2468 203.238 47.2444 201.21V182.259C47.2468 180.231 48.0529 178.286 49.486 176.852C50.9191 175.418 52.8621 174.612 54.8888 174.609H143.771C145.797 174.612 147.74 175.418 149.173 176.852C150.606 178.286 151.413 180.231 151.415 182.259V201.21C151.413 203.238 150.606 205.182 149.173 206.616C147.74 208.05 145.797 208.857 143.771 208.859ZM54.8888 175.354C53.0594 175.356 51.3055 176.084 50.0119 177.379C48.7183 178.673 47.9906 180.428 47.9885 182.259V201.21C47.9906 203.04 48.7183 204.795 50.0119 206.09C51.3055 207.384 53.0594 208.112 54.8888 208.114H143.771C145.6 208.112 147.354 207.384 148.647 206.09C149.941 204.795 150.669 203.04 150.671 201.21V182.259C150.669 180.428 149.941 178.673 148.647 177.379C147.354 176.084 145.6 175.356 143.771 175.354H54.8888Z" fill="#E6E6E6"/>
<path d="M221.035 48.2794C220.293 48.3945 219.625 48.7946 219.174 49.3946C218.723 49.9946 218.523 50.7472 218.618 51.4922C218.64 51.6433 218.674 51.7924 218.72 51.9379L210.722 58.03L212.383 63.1785L222.438 53.6478C223.026 53.4093 223.519 52.9828 223.839 52.4347C224.159 51.8866 224.289 51.2478 224.209 50.6179C224.159 50.26 224.04 49.9153 223.858 49.6035C223.675 49.2917 223.433 49.0189 223.145 48.8007C222.858 48.5825 222.53 48.4231 222.18 48.3318C221.831 48.2404 221.467 48.2187 221.109 48.2681C221.084 48.2715 221.059 48.2753 221.035 48.2794Z" fill="#FFB6B6"/>
<path d="M165.862 76.5249C165.914 77.7863 166.456 78.9777 167.373 79.8451C168.289 80.7124 169.508 81.187 170.77 81.1677L185.871 80.9364L204.966 72.0747C204.966 72.0747 211.193 66.7859 212.929 66.6613C214.665 66.5367 215.59 68.1532 215.196 66.6773C214.803 65.2015 214.282 64.2136 215.617 64.3513C216.951 64.4891 216.739 61.7657 217.034 60.7355C217.329 59.7053 213.27 55.9874 213.27 55.9874C213.27 55.9874 210.345 56.044 210.154 56.4285C209.962 56.8131 210.629 57.7821 209.057 57.7406C207.485 57.6991 206.285 57.7653 206.236 58.4956C206.187 59.2258 206.301 59.795 205.43 60.3606C204.559 60.9262 200.628 63.8419 200.628 63.8419L169.522 71.6316C168.442 71.9019 167.489 72.5361 166.823 73.4274C166.156 74.3187 165.817 75.4126 165.862 76.5249Z" fill="#3F3D56"/>
<path d="M173.948 213.983H178.054L180.008 198.134H173.948V213.983Z" fill="#FFB6B6"/>
<path d="M172.608 211.169L179.168 210.777V213.589L185.405 217.9C185.714 218.113 185.946 218.419 186.068 218.773C186.19 219.127 186.195 219.511 186.084 219.868C185.973 220.226 185.75 220.539 185.448 220.761C185.147 220.983 184.782 221.103 184.408 221.102H176.597L175.251 218.32L174.725 221.102H171.781L172.608 211.169Z" fill="#2F2E41"/>
<path d="M180.806 112.439L183.038 98.6647L167.413 94.942V109.212L180.806 112.439Z" fill="#FFB6B6"/>
<path d="M161.274 125.655L168.913 175.345C168.913 175.345 168.464 196.942 171.938 201.877L172.807 207.184H180.645C180.645 207.184 180.501 203.924 181.304 202.017C182.108 200.11 183.224 201.374 182.108 199.625C180.992 197.877 180.873 198.07 181.304 196.67C181.736 195.271 181.988 131.806 181.988 131.806L161.274 125.655Z" fill="#2F2E41"/>
<path d="M165.927 189.579L168.307 192.928L182.348 185.337L178.836 180.395L165.927 189.579Z" fill="#FFB6B6"/>
<path d="M167.443 186.855L171.563 191.978L169.273 193.608L169.376 201.192C169.382 201.567 169.267 201.933 169.049 202.238C168.831 202.543 168.522 202.77 168.166 202.887C167.81 203.003 167.427 203.003 167.071 202.885C166.716 202.768 166.407 202.54 166.19 202.235L161.664 195.865L163.15 193.155L160.579 194.339L158.873 191.937L167.443 186.855Z" fill="#2F2E41"/>
<path d="M166.668 100.898L166.562 106.664C166.562 106.664 152.44 119.064 163.089 134.179C163.089 134.179 164.43 138.531 166.293 138.329C168.157 138.126 169.105 139.166 168.631 140.135C168.157 141.104 186.26 152.894 186.26 152.894C186.26 152.894 174.328 179.219 171.505 185.033L173.365 190.99C173.365 190.99 172.38 193.294 173.896 192.421C175.411 191.548 174.666 191.429 176.341 191.116C178.016 190.803 180.08 190.085 179.978 189.7C179.876 189.314 200.806 156.909 200.806 156.909C200.806 156.909 205.822 151.571 202.15 145.314C201.64 145.199 201.627 145.314 201.627 145.314L183.677 124.86L181.55 111.322L166.668 100.898Z" fill="#2F2E41"/>
<path d="M182.817 63.9406L173.775 59.7002L171.068 64.4134C171.068 64.4134 163.798 74.795 163.692 82.2845C163.587 89.7741 164.877 92.0012 164.877 92.0012C164.877 92.0012 161.742 94.3463 163.31 95.7797C164.877 97.2131 168.347 97.8316 165.682 98.4531C163.017 99.0745 163.692 105.366 166.668 106.483C169.645 107.599 185.629 107.59 185.629 107.59C185.485 107.102 185.475 106.585 185.598 106.091C185.722 105.598 185.975 105.147 186.332 104.785C187.571 103.542 188.687 104.434 187.571 102.499C186.455 100.564 184.595 101.68 186.083 99.0745C187.571 96.4686 187.571 95.6898 187.571 95.6898C187.571 95.6898 191.195 89.4351 186.035 83.6449C180.875 77.8547 185.991 83.2481 185.991 83.2481L182.301 70.8752L182.817 63.9406Z" fill="#3F3D56"/>
<path d="M219.448 100.526H206.526C204.836 100.524 203.216 99.8516 202.021 98.6558C200.826 97.46 200.154 95.8387 200.152 94.1476V81.2175C200.154 79.5264 200.826 77.9051 202.021 76.7093C203.216 75.5135 204.836 74.8409 206.526 74.839H219.448C221.138 74.8409 222.758 75.5135 223.953 76.7093C225.148 77.9051 225.82 79.5264 225.822 81.2175V94.1476C225.82 95.8387 225.148 97.46 223.953 98.6558C222.758 99.8516 221.138 100.524 219.448 100.526Z" fill="#D04729"/>
<path d="M226.145 51.3855H213.223C211.533 51.3836 209.913 50.711 208.718 49.5152C207.523 48.3194 206.85 46.6981 206.849 45.007V32.0769C206.85 30.3858 207.523 28.7645 208.718 27.5687C209.913 26.3729 211.533 25.7002 213.223 25.6983H226.145C227.835 25.7002 229.455 26.3729 230.65 27.5687C231.845 28.7645 232.517 30.3858 232.519 32.0769V45.007C232.517 46.6981 231.845 48.3194 230.65 49.5152C229.455 50.711 227.835 51.3836 226.145 51.3855Z" fill="#D04729"/>
<path d="M191.177 59.0085L191.185 59.0075C191.602 58.958 191.982 58.7448 192.242 58.4146C192.502 58.0845 192.62 57.6645 192.571 57.2472L191.535 48.464C191.351 46.8902 190.853 45.3695 190.07 43.9923C188.538 41.3052 186.028 39.3134 183.065 38.4321C181.535 37.979 179.929 37.8405 178.345 38.0251C171.861 38.78 169.822 40.6014 167.971 51.1387C166.12 61.676 169.008 59.9353 169.008 59.9353C169.033 60.147 169.1 60.3516 169.206 60.5368C169.412 60.898 169.75 61.1655 170.149 61.2833C170.353 61.3435 170.568 61.3619 170.78 61.3375C178.7 61.6395 186.71 62.0275 191.178 59.0083L191.177 59.0085Z" fill="#2F2E41"/>
<path d="M174.087 47.4692C173.443 49.0671 173.286 50.8203 173.637 52.5073C173.988 54.1943 174.831 55.7394 176.058 56.9475C177.286 58.1556 178.844 58.9725 180.536 59.2951C182.228 59.6176 183.977 59.4313 185.563 58.7597C186.613 58.3187 187.566 57.6734 188.365 56.8614C189.165 56.0493 189.795 55.0866 190.22 54.0289C190.863 52.4319 191.018 50.6802 190.667 48.9949C190.316 47.3095 189.474 45.7658 188.248 44.5585C187.021 43.3512 185.465 42.5343 183.775 42.2109C182.085 41.8874 180.338 42.0718 178.752 42.7408C177.701 43.1808 176.747 43.8254 175.946 44.6371C175.145 45.4488 174.514 46.4116 174.087 47.4695L174.087 47.4692Z" fill="#FFB6B6"/>
<path d="M194.404 48.8501C194.258 47.6055 193.864 46.4028 193.245 45.3136C192.548 42.4739 191.165 40.0627 187.705 40.9174C186.503 40.5618 185.242 40.4519 183.996 40.594L182.238 40.7926C182.218 40.7948 182.199 40.7971 182.179 40.7994C179.722 41.0909 177.482 42.347 175.951 44.2914C174.42 46.2358 173.723 48.7091 174.014 51.1674L174.035 51.3433L177.753 50.9196L178.603 47.2274L179.275 50.747L181.195 50.5289L181.624 48.6662L181.963 50.4406C185.282 52.3039 189.545 51.526 194.423 49.0266L194.404 48.8501Z" fill="#2F2E41"/>
<path d="M184.501 59.5158C184.593 59.7928 184.605 60.0901 184.536 60.3737C184.502 60.5188 184.447 60.6583 184.375 60.7882C184.312 60.899 184.237 61.002 184.15 61.095C183.893 61.3698 183.547 61.5441 183.174 61.5866C183.15 61.5891 183.127 61.5912 183.104 61.5928C183.08 61.5945 183.057 61.5956 183.033 61.5962C183.009 61.597 182.986 61.5972 182.962 61.5966C182.938 61.5961 182.915 61.5952 182.891 61.5938L181.543 61.5096L179.269 57.84L179.688 61.3977L173.564 61.0252L171.784 45.9279L181.843 44.7895L181.629 45.1077C180.918 46.1743 180.515 47.4165 180.465 48.6974C180.42 49.9941 180.597 51.2889 180.989 52.5256C181.376 53.7782 181.883 54.9906 182.502 56.1463C183.044 57.1707 183.645 58.1631 184.302 59.1183C184.386 59.2408 184.454 59.3746 184.501 59.5158Z" fill="#2F2E41"/>
<path d="M208.18 73.4534C207.482 73.7289 206.919 74.2661 206.61 74.9508C206.302 75.6355 206.273 76.4135 206.529 77.1194C206.583 77.2621 206.649 77.4 206.726 77.5318L200.264 85.2354L203.017 89.892L210.729 78.3813C211.25 78.0192 211.637 77.4946 211.829 76.8894C212.021 76.2843 212.008 75.6325 211.791 75.0359C211.664 74.6975 211.472 74.3875 211.225 74.1235C210.979 73.8595 210.682 73.6467 210.354 73.4972C210.025 73.3477 209.67 73.2645 209.309 73.2522C208.948 73.24 208.589 73.299 208.25 73.4259C208.227 73.4347 208.203 73.4439 208.18 73.4534Z" fill="#FFB6B6"/>
<path d="M174.334 71.9081C173.683 72.2024 173.103 72.6336 172.633 73.1723C172.164 73.7109 171.816 74.3445 171.613 75.0299C171.41 75.7152 171.357 76.4363 171.457 77.144C171.557 77.8518 171.809 78.5296 172.194 79.1314L178.388 88.7994L192.897 101.829C192.897 101.829 204.802 93.2667 205.174 90.2885C205.546 87.3103 204.43 86.5657 205.546 87.3103C206.662 88.0548 207.779 87.6826 207.407 87.3103C207.034 86.938 207.18 86.9145 207.479 86.3679C207.779 85.8212 208.895 83.2152 208.895 83.2152L204.941 79.3063C204.941 79.3063 200.71 81.3538 200.338 82.4707C199.966 83.5875 201.454 83.2152 199.966 83.5875C198.478 83.9598 196.49 82.2713 198.042 84.0463C199.594 85.8212 199.466 86.5921 198.042 86.5789C196.617 86.5657 194.013 90.2885 194.013 90.2885L180.246 73.3083C179.554 72.4542 178.598 71.8536 177.529 71.6003C176.459 71.347 175.336 71.4552 174.334 71.9081Z" fill="#3F3D56"/>
<path d="M218.666 212.213C218.937 212.223 219.206 212.149 219.434 212.001C219.662 211.854 219.84 211.639 219.942 211.387C220.044 211.135 220.067 210.858 220.007 210.593C219.946 210.328 219.806 210.087 219.605 209.905C219.57 209.772 219.545 209.677 219.51 209.544C219.764 208.881 220.21 208.309 220.79 207.901C221.371 207.493 222.06 207.268 222.77 207.254C223.479 207.241 224.176 207.44 224.772 207.825C225.368 208.211 225.835 208.766 226.113 209.419C227.72 213.084 229.79 216.875 228.817 220.938C235.363 206.707 232.923 189.105 222.935 177.084C220.192 175.605 217.954 172.954 217.349 169.856C218.704 170.301 220.377 169.186 219.348 167.772C218.903 167.232 218.453 166.697 218.008 166.157C223.087 160.64 229.281 169.175 223.704 176.608C225.574 178.908 227.198 181.397 228.55 184.035C228.216 181.224 228.555 178.373 229.538 175.718C230.536 173.243 232.43 171.148 234.096 169.001C236.121 166.384 240.351 167.542 240.658 170.835C238.772 171.475 238.552 174.212 240.72 174.565C240.211 180.702 236.262 186.374 230.775 189.116C232.865 194.812 233.718 200.89 233.277 206.942C234.182 199.865 241.748 198.077 247.021 195.218C247.356 194.998 247.748 194.881 248.149 194.88C248.55 194.879 248.942 194.996 249.278 195.214C249.614 195.433 249.879 195.745 250.041 196.111C250.203 196.478 250.254 196.884 250.189 197.28C249.461 197.585 248.764 197.961 248.11 198.403C247.803 198.614 247.569 198.914 247.44 199.263C247.311 199.612 247.292 199.992 247.387 200.351C247.483 200.711 247.687 201.033 247.971 201.272C248.256 201.511 248.608 201.656 248.979 201.687C246.37 208.328 239.506 212.837 232.412 212.879C231.759 215.85 230.799 218.744 229.547 221.516L219.019 221.617C218.98 221.5 218.945 221.379 218.91 221.263C219.885 221.315 220.863 221.247 221.821 221.061C219.214 218.031 217.205 216.492 218.665 212.213L218.666 212.213Z" fill="#F2F2F2"/>
<path d="M1.95952e-06 221.557C-0.000171436 221.615 0.0111644 221.673 0.0333534 221.727C0.0555423 221.781 0.0881499 221.829 0.129298 221.871C0.170445 221.912 0.21932 221.944 0.273115 221.967C0.326909 221.989 0.38456 222 0.44275 222H266.557C266.675 222 266.787 221.953 266.87 221.87C266.953 221.787 267 221.674 267 221.557C267 221.44 266.953 221.327 266.87 221.244C266.787 221.161 266.675 221.114 266.557 221.114H0.442727C0.38454 221.114 0.326894 221.125 0.273103 221.147C0.219312 221.17 0.170437 221.202 0.129292 221.243C0.088147 221.285 0.0555417 221.333 0.0333534 221.387C0.0111651 221.441 -0.000169446 221.499 1.95952e-06 221.557Z" fill="#CCCCCC"/>
<path d="M66.2005 10.8232H56.1555C55.6622 10.8232 55.189 10.6271 54.8402 10.2781C54.4913 9.92898 54.2953 9.45553 54.2953 8.96186C54.2953 8.46819 54.4913 7.99474 54.8402 7.64566C55.189 7.29658 55.6622 7.10047 56.1555 7.10047H66.2005C66.6939 7.10047 67.167 7.29658 67.5159 7.64566C67.8648 7.99474 68.0607 8.46819 68.0607 8.96186C68.0607 9.45553 67.8648 9.92898 67.5159 10.2781C67.167 10.6271 66.6939 10.8232 66.2005 10.8232Z" fill="#E6E6E6"/>
<path d="M132.051 10.6371C132.976 10.6371 133.725 9.88707 133.725 8.96185C133.725 8.03664 132.976 7.28661 132.051 7.28661C131.126 7.28661 130.377 8.03664 130.377 8.96185C130.377 9.88707 131.126 10.6371 132.051 10.6371Z" fill="#E6E6E6"/>
<path d="M137.26 10.6371C138.184 10.6371 138.934 9.88707 138.934 8.96185C138.934 8.03664 138.184 7.28661 137.26 7.28661C136.335 7.28661 135.586 8.03664 135.586 8.96185C135.586 9.88707 136.335 10.6371 137.26 10.6371Z" fill="#E6E6E6"/>
<path d="M142.468 10.6371C143.393 10.6371 144.142 9.88707 144.142 8.96185C144.142 8.03664 143.393 7.28661 142.468 7.28661C141.544 7.28661 140.794 8.03664 140.794 8.96185C140.794 9.88707 141.544 10.6371 142.468 10.6371Z" fill="#E6E6E6"/>
<path d="M77.9198 73.1797C80.3854 73.1797 82.3842 71.1796 82.3842 68.7124C82.3842 66.2452 80.3854 64.2451 77.9198 64.2451C75.4541 64.2451 73.4553 66.2452 73.4553 68.7124C73.4553 71.1796 75.4541 73.1797 77.9198 73.1797Z" fill="#CCCCCC"/>
<path d="M110.287 186.352C112.753 186.352 114.751 184.352 114.751 181.885C114.751 179.418 112.753 177.417 110.287 177.417C107.821 177.417 105.823 179.418 105.823 181.885C105.823 184.352 107.821 186.352 110.287 186.352Z" fill="#CCCCCC"/>
<path d="M73.9315 129.75H61.0098C59.2211 129.748 57.5063 129.036 56.2415 127.77C54.9768 126.505 54.2653 124.789 54.2633 122.999V110.069C54.2653 108.279 54.9768 106.563 56.2415 105.298C57.5063 104.032 59.2211 103.32 61.0098 103.318H73.9315C75.7202 103.32 77.435 104.032 78.6997 105.298C79.9645 106.563 80.6759 108.279 80.678 110.069V122.999C80.6759 124.789 79.9645 126.505 78.6997 127.77C77.435 129.036 75.7202 129.748 73.9315 129.75ZM61.0098 104.063C59.4184 104.065 57.8927 104.698 56.7675 105.824C55.6422 106.95 55.0092 108.477 55.0074 110.069V122.999C55.0092 124.591 55.6421 126.118 56.7674 127.244C57.8927 128.37 59.4184 129.003 61.0098 129.005H73.9315C75.5229 129.003 77.0486 128.37 78.1738 127.244C79.2991 126.118 79.9321 124.591 79.9339 122.999V110.069C79.9321 108.477 79.2991 106.95 78.1738 105.824C77.0485 104.698 75.5229 104.065 73.9315 104.063L61.0098 104.063Z" fill="#E6E6E6"/>
<path d="M105.741 129.936H92.819C91.0303 129.934 89.3155 129.222 88.0507 127.956C86.786 126.691 86.0745 124.975 86.0725 123.185V110.255C86.0745 108.465 86.786 106.749 88.0507 105.484C89.3155 104.218 91.0303 103.506 92.819 103.504H105.741C107.529 103.506 109.244 104.218 110.509 105.484C111.774 106.749 112.485 108.465 112.487 110.255V123.185C112.485 124.975 111.774 126.691 110.509 127.956C109.244 129.222 107.529 129.934 105.741 129.936ZM92.819 104.249C91.2276 104.251 89.7019 104.884 88.5767 106.01C87.4514 107.136 86.8184 108.663 86.8166 110.255V123.185C86.8184 124.778 87.4513 126.304 88.5766 127.43C89.7019 128.556 91.2276 129.19 92.819 129.191H105.741C107.332 129.19 108.858 128.556 109.983 127.43C111.108 126.304 111.741 124.778 111.743 123.185V110.255C111.741 108.663 111.108 107.136 109.983 106.01C108.858 104.884 107.332 104.251 105.741 104.249L92.819 104.249Z" fill="#E6E6E6"/>
<path d="M137.55 130.122H124.628C122.84 130.12 121.125 129.408 119.86 128.143C118.595 126.877 117.884 125.161 117.882 123.371V110.441C117.884 108.651 118.595 106.935 119.86 105.67C121.125 104.404 122.84 103.692 124.628 103.69H137.55C139.339 103.692 141.053 104.404 142.318 105.67C143.583 106.935 144.294 108.651 144.296 110.441V123.371C144.294 125.161 143.583 126.877 142.318 128.143C141.053 129.408 139.339 130.12 137.55 130.122ZM124.628 104.435C123.037 104.437 121.511 105.07 120.386 106.196C119.261 107.322 118.628 108.849 118.626 110.441V123.371C118.628 124.964 119.261 126.49 120.386 127.616C121.511 128.742 123.037 129.376 124.628 129.378H137.55C139.141 129.376 140.667 128.742 141.792 127.616C142.918 126.49 143.551 124.964 143.552 123.371V110.441C143.551 108.849 142.918 107.322 141.792 106.196C140.667 105.07 139.141 104.437 137.55 104.435L124.628 104.435Z" fill="#E6E6E6"/>
<path d="M110.287 110.78C112.753 110.78 114.751 108.78 114.751 106.312C114.751 103.845 112.753 101.845 110.287 101.845C107.821 101.845 105.823 103.845 105.823 106.312C105.823 108.78 107.821 110.78 110.287 110.78Z" fill="#CCCCCC"/>
</g>
<defs>
<clipPath id="clip0_2_7">
<rect width="267" height="222" fill="white"/>
</clipPath>
</defs>
</svg>
